<?xml version="1.0" standalone="no"?>
<!DOCTYPE svg PUBLIC "-//W3C//DTD SVG 20010904//EN"
 "http://www.w3.org/TR/2001/REC-SVG-20010904/DTD/svg10.dtd">
<svg version="1.0" xmlns="http://www.w3.org/2000/svg"
 width="309.000000pt" height="338.000000pt" viewBox="0 0 309.000000 338.000000"
 preserveAspectRatio="xMidYMid meet">

<g transform="translate(0.000000,338.000000) scale(0.100000,-0.100000)"
fill="#000000" stroke="none">
<path d="M1422 3176 c-52 -30 -98 -58 -104 -64 -7 -7 17 -50 73 -131 46 -67
86 -121 90 -121 6 0 149 304 149 318 0 12 -75 52 -96 52 -11 0 -61 -25 -112
-54z"/>
<path d="M1641 3088 c-16 -35 -52 -112 -81 -173 -47 -101 -53 -108 -66 -91
-12 17 -14 17 -20 3 -3 -10 -9 -17 -13 -17 -4 0 -47 59 -95 130 -49 72 -92
133 -97 136 -4 2 -52 -21 -106 -52 -270 -157 -280 -163 -642 -374 l-301 -175
0 -71 0 -70 58 -70 c32 -38 89 -107 127 -154 215 -263 439 -537 451 -549 12
-13 20 0 60 85 25 54 77 164 115 243 38 79 69 144 69 146 0 2 30 65 66 141 36
77 109 231 161 344 137 296 132 286 148 263 13 -17 14 -17 20 0 4 9 10 17 15
17 4 0 60 -79 126 -175 178 -263 274 -400 282 -402 4 -2 35 50 70 115 34 64
107 200 162 301 55 101 99 185 97 187 -1 1 -30 18 -64 38 -35 20 -90 52 -123
71 -33 19 -86 50 -117 68 -32 19 -101 59 -154 90 -53 32 -101 57 -108 57 -6 0
-25 -28 -40 -62z"/>
<path d="M2283 2788 c-9 -13 -33 -55 -123 -223 -120 -222 -203 -371 -212 -380
-7 -7 -12 -6 -15 3 -3 6 -8 12 -13 12 -14 0 -21 -32 -9 -46 10 -12 13 -12 23
2 13 17 6 25 148 -181 113 -164 433 -632 477 -697 25 -37 48 -68 51 -68 3 0
37 57 75 127 39 70 91 166 117 213 l47 85 1 417 0 417 -27 19 c-16 10 -131 79
-258 152 -126 73 -239 139 -251 147 -17 11 -23 11 -31 1z"/>
<path d="M1270 2297 c-360 -776 -368 -791 -386 -776 -13 10 -17 10 -24 0 -4
-8 -13 -11 -18 -7 -10 6 -413 494 -557 674 l-60 75 -3 -659 c-2 -525 0 -661
10 -667 124 -78 271 -158 278 -151 5 5 82 164 170 354 89 189 163 346 165 349
3 2 11 -2 19 -8 11 -10 17 -8 25 6 10 16 14 14 44 -22 17 -22 68 -83 112 -136
44 -53 113 -137 154 -188 41 -50 77 -91 80 -91 4 0 51 82 106 183 54 100 190
350 302 555 112 205 203 376 203 380 0 5 -26 46 -58 92 -32 47 -98 144 -147
215 -112 165 -196 285 -198 285 -1 -1 -99 -209 -217 -463z"/>
<path d="M1908 2099 c-9 -13 -75 -134 -148 -269 -73 -135 -141 -259 -151 -277
-10 -17 -80 -145 -155 -285 -75 -139 -139 -255 -140 -257 -2 -2 -11 2 -20 9
-13 12 -17 11 -25 -1 -11 -17 -31 3 -154 155 -154 191 -227 276 -234 276 -8 0
-14 -13 -213 -439 -94 -203 -116 -257 -106 -266 19 -17 419 -248 422 -243 3 3
154 279 224 408 49 90 52 94 68 73 12 -17 13 -17 19 0 4 9 11 17 15 17 4 0 34
-33 66 -73 92 -115 398 -488 436 -531 l34 -39 224 130 225 131 142 263 c79
144 145 265 148 267 2 3 11 -1 20 -8 12 -10 16 -9 21 4 3 9 3 24 -1 34 -6 16
-7 16 -19 0 -17 -23 -6 -38 -232 292 -304 444 -408 595 -430 625 l-21 28 -15
-24z"/>
<path d="M2743 1349 l-103 -189 82 -120 c45 -66 84 -120 88 -120 3 0 14 6 23
13 16 11 17 39 15 308 l-3 297 -102 -189z"/>
<path d="M2512 928 c-116 -213 -135 -249 -130 -253 2 -1 64 33 138 76 74 43
160 93 192 111 l56 32 -69 102 c-37 56 -73 105 -78 108 -5 3 -54 -76 -109
-176z"/>
<path d="M1154 717 l-132 -242 127 -74 c69 -40 178 -105 242 -142 64 -38 124
-72 133 -75 15 -6 46 10 219 114 32 20 56 38 55 42 -5 12 -503 619 -508 619
-3 0 -64 -108 -136 -242z"/>
</g>
</svg>
